<svg width="139" height="38" viewBox="0 0 661 182" fill="none" xmlns="http://www.w3.org/2000/svg">
<g filter="url(#filter0_d_5_3)">
<mask id="mask0_5_3" style="mask-type:alpha" maskUnits="userSpaceOnUse" x="0" y="6" width="150" height="157">
<rect y="6" width="149.021" height="156.409" fill="#D9D9D9"/>
</mask>
<g mask="url(#mask0_5_3)">
<path d="M92.1552 87.3L71.5614 65.631L93.3455 42.8212L88.7404 37.9877L53.1924 75.2977L45.8449 67.586L80.7201 30.9277C83.2728 28.2484 85.9549 26.8907 88.7662 26.8545C91.5776 26.8183 94.2942 28.1761 96.9158 30.9277L100.797 35.0008L108.041 27.3975C109.214 26.1666 110.567 25.5511 112.102 25.5511C113.638 25.5511 114.991 26.1666 116.164 27.3975L128.531 40.3774C129.704 41.6083 130.29 43.0656 130.29 44.7491C130.29 46.4327 129.704 47.89 128.531 49.1209L92.1552 87.3ZM39.2215 142.858H18.6277V121.243L64.1621 73.397L84.8077 95.0118L39.2215 142.858Z" fill="#1C1B1F"/>
</g>
<path d="M42.0977 144.41C40.1131 144.659 37.3414 145.023 34 145.5C27 146.5 13.7664 137.5 21.9566 146C25.7111 149.896 34.4979 150.435 37.7557 150.497C38.5874 150.513 39.4145 150.462 40.243 150.387L44.5 150L58.9803 148.657C60.1119 148.553 61.2369 148.391 62.366 148.263C64.2701 148.046 67.3986 147.849 69.6785 148.5C70.9621 148.867 72.2457 149.704 73.3566 150.618C75.6709 152.521 78.431 154 81.4273 154C84.1373 154 86.7239 152.867 88.562 150.876L97.1545 141.568C97.5038 141.189 97.9462 140.931 98.4137 141.147C98.9844 141.41 99.9769 142.042 101.678 143.5C103.338 144.922 105.334 147.356 106.975 149.522C109.036 152.244 112.269 153.89 115.678 153.711C118.24 153.576 120.642 152.429 122.358 150.523L124.178 148.5L126.55 145.496C129.922 141.225 134.247 137.801 139.178 135.5C142.375 134.174 145.751 133.333 149.196 133.005L150.065 132.922C153.012 132.642 155.982 132.698 158.916 133.089L162 133.5L163.828 133.866C164.029 133.906 164.16 133.66 164.015 133.515C164.005 133.505 163.994 133.496 163.982 133.488L162.303 132.39C160.893 131.467 159.369 130.73 157.77 130.197L156.184 129.669C152.869 128.563 149.397 128 145.902 128H141.13C136.893 128 132.719 129.031 128.97 131.005L126.743 132.177C125.707 132.722 124.767 133.432 123.959 134.28L118.627 139.879C116.822 141.774 113.748 141.593 112.178 139.5L108.335 135.272C107.566 134.427 106.704 133.672 105.765 133.021L105.419 132.782C102.382 130.679 98.638 129.859 95 130.5C91.0157 131.13 87.6275 133.634 85.3576 136.969C83.7451 139.337 81.954 141.477 81 141C80.9444 140.972 80.8851 140.941 80.8224 140.908C75.0956 137.827 68.5099 136.516 62.5 139L48.7895 143.032C46.6007 143.676 44.3614 144.125 42.0977 144.41Z" fill="#1C1B1F" stroke="#1C1B1F"/>
<path d="M188.21 146V36.9091H225.071C233.594 36.9091 240.589 38.3651 246.058 41.277C251.527 44.1534 255.575 48.1129 258.203 53.1555C260.831 58.1982 262.145 63.9332 262.145 70.3608C262.145 76.7884 260.831 82.4879 258.203 87.4595C255.575 92.4311 251.545 96.3374 246.112 99.1783C240.678 101.984 233.736 103.386 225.284 103.386H195.455V91.4545H224.858C230.682 91.4545 235.369 90.6023 238.92 88.8977C242.507 87.1932 245.099 84.7784 246.697 81.6534C248.331 78.4929 249.148 74.7287 249.148 70.3608C249.148 65.9929 248.331 62.1754 246.697 58.9084C245.064 55.6413 242.454 53.12 238.867 51.3445C235.281 49.5334 230.54 48.6278 224.645 48.6278H201.42V146H188.21ZM239.56 96.9943L266.406 146H251.065L224.645 96.9943H239.56ZM297.368 36.9091V146H284.157V36.9091H297.368ZM323.855 146V36.9091H389.267V48.6278H337.065V85.4886H384.366V97.2074H337.065V146H323.855ZM411.892 146V36.9091H477.304V48.6278H425.102V85.4886H472.403V97.2074H425.102V146H411.892ZM499.929 146V36.9091H513.139V134.281H563.849V146H499.929ZM584.304 146V36.9091H650.142V48.6278H597.514V85.4886H646.733V97.2074H597.514V134.281H650.994V146H584.304Z" fill="black"/>
</g>
<defs>
<filter id="filter0_d_5_3" x="14.6277" y="25.5511" width="640.367" height="136.949" filterUnits="userSpaceOnUse" color-interpolation-filters="sRGB">
<feFlood flood-opacity="0" result="BackgroundImageFix"/>
<feColorMatrix in="SourceAlpha" type="matrix" values="0 0 0 0 0 0 0 0 0 0 0 0 0 0 0 0 0 0 127 0" result="hardAlpha"/>
<feOffset dy="4"/>
<feGaussianBlur stdDeviation="2"/>
<feComposite in2="hardAlpha" operator="out"/>
<feColorMatrix type="matrix" values="0 0 0 0 0 0 0 0 0 0 0 0 0 0 0 0 0 0 0.25 0"/>
<feBlend mode="normal" in2="BackgroundImageFix" result="effect1_dropShadow_5_3"/>
<feBlend mode="normal" in="SourceGraphic" in2="effect1_dropShadow_5_3" result="shape"/>
</filter>
</defs>
</svg>
