<svg width="46" height="46" viewBox="0 0 165 157" fill="none" xmlns="http://www.w3.org/2000/svg">
<mask id="mask0_5_4" style="mask-type:alpha" maskUnits="userSpaceOnUse" x="0" y="0" width="150" height="157">
<rect width="149.021" height="156.409" fill="#D9D9D9"/>
</mask>
<g mask="url(#mask0_5_4)">
<path d="M92.1552 81.3L71.5614 59.631L93.3455 36.8212L88.7404 31.9877L53.1924 69.2977L45.8449 61.586L80.7201 24.9276C83.2728 22.2484 85.9549 20.8907 88.7662 20.8545C91.5776 20.8183 94.2942 22.176 96.9158 24.9276L100.797 29.0008L108.041 21.3975C109.214 20.1666 110.567 19.5511 112.103 19.5511C113.638 19.5511 114.992 20.1666 116.164 21.3975L128.531 34.3773C129.704 35.6083 130.29 37.0656 130.29 38.7491C130.29 40.4327 129.704 41.89 128.531 43.1209L92.1552 81.3ZM39.2215 136.858H18.6277V115.243L64.1621 67.397L84.8077 89.0118L39.2215 136.858Z" fill="#4F46E5"/>
</g>
<path d="M42.0977 138.41C40.1131 138.659 37.3414 139.023 34 139.5C27 140.5 13.7664 131.5 21.9566 140C25.7111 143.896 34.4979 144.435 37.7557 144.497C38.5874 144.513 39.4145 144.462 40.243 144.387L44.5 144L58.9803 142.657C60.1119 142.553 61.2369 142.391 62.366 142.263C64.2701 142.046 67.3986 141.849 69.6785 142.5C70.9621 142.867 72.2457 143.704 73.3566 144.618C75.6709 146.521 78.431 148 81.4273 148C84.1373 148 86.7239 146.867 88.562 144.876L97.1545 135.568C97.5038 135.189 97.9462 134.931 98.4137 135.147C98.9844 135.41 99.9769 136.042 101.678 137.5C103.338 138.922 105.334 141.356 106.975 143.522C109.036 146.244 112.269 147.89 115.678 147.711C118.24 147.576 120.642 146.429 122.358 144.523L124.178 142.5L126.55 139.496C129.922 135.225 134.247 131.801 139.178 129.5C142.375 128.174 145.751 127.333 149.196 127.005L150.065 126.922C153.012 126.642 155.982 126.698 158.916 127.089L162 127.5L163.828 127.866C164.029 127.906 164.16 127.66 164.015 127.515C164.005 127.505 163.994 127.496 163.982 127.488L162.303 126.39C160.893 125.467 159.369 124.73 157.77 124.197L156.184 123.669C152.869 122.563 149.397 122 145.902 122H141.13C136.893 122 132.719 123.031 128.97 125.005L126.743 126.177C125.707 126.722 124.767 127.432 123.959 128.28L118.627 133.879C116.822 135.774 113.748 135.593 112.178 133.5L108.335 129.272C107.566 128.427 106.704 127.672 105.765 127.021L105.419 126.782C102.382 124.679 98.638 123.859 95 124.5C91.0157 125.13 87.6275 127.634 85.3576 130.969C83.7451 133.337 81.954 135.477 81 135C80.9444 134.972 80.8851 134.941 80.8224 134.908C75.0956 131.827 68.5099 130.516 62.5 133L48.7895 137.032C46.6007 137.676 44.3614 138.125 42.0977 138.41Z" fill="#4F46E5" stroke="#4F46E5"/>
</svg>
